<svg xmlns:dc="http://purl.org/dc/elements/1.1/" xmlns:cc="http://creativecommons.org/ns#" xmlns:rdf="http://www.w3.org/1999/02/22-rdf-syntax-ns#" xmlns:svg="http://www.w3.org/2000/svg" xmlns="http://www.w3.org/2000/svg" xmlns:sodipodi="http://sodipodi.sourceforge.net/DTD/sodipodi-0.dtd" xmlns:inkscape="http://www.inkscape.org/namespaces/inkscape" viewBox="0 0 100 125" version="1.1" x="0px" y="0px"><g transform="translate(0,-952.36216)"><path d="m 32.674576,957.36216 -17.317833,29.99638 c 11.54723,20.00166 23.095665,40.00266 34.643859,60.00366 11.547711,-20.0012 23.095182,-40.0024 34.642653,-60.00366 l -17.317832,-29.99638 -34.634701,0 -0.01687,0 z m 4.942099,8.56859 24.752189,0 12.376697,21.42779 -12.376697,21.42736 -24.752189,0 -12.37501,-21.42736 12.37501,-21.42779 z" style="opacity:1;fill:#000000;fill-opacity:1;stroke:none;stroke-width:5;stroke-linecap:butt;stroke-linejoin:miter;stroke-miterlimit:4;stroke-dasharray:none;stroke-dashoffset:0;stroke-opacity:1"/><path d="m 36.369101,979.21549 0.122661,0.42972 -0.547998,0 1.01382,3.52765 0.542696,0.002 0.120492,0.42213 11.798335,0.0154 1.115515,3.90409 5.419971,0 1.871241,7.98534 6.217869,0 0,-1.72277 -2.767461,-10.15126 2.726011,0.004 -1.351679,-4.41468 -26.281473,0 z m 13.961649,4.39685 4.710755,0.006 0.70777,3.02071 -4.553875,0 -0.86465,-3.02683 z" style="" fill="#000000" fill-rule="evenodd" stroke="none"/></g><text x="0" y="115" fill="#000000" font-size="5px" font-weight="bold" font-family="'Helvetica Neue', Helvetica, Arial-Unicode, Arial, Sans-serif">Created by anbileru adaleru</text><text x="0" y="120" fill="#000000" font-size="5px" font-weight="bold" font-family="'Helvetica Neue', Helvetica, Arial-Unicode, Arial, Sans-serif">from the Noun Project</text></svg>